<svg height="512" viewBox="0 0 128 128" width="512" xmlns="http://www.w3.org/2000/svg"><g><g><path d="m87.858 107.125h-63.667v-86.25h53l10.667 10.667z" fill="#e6f7fb"/><path d="m87.858 31.542h-10.667v-10.667z" fill="#b7e8f9"/><path d="m101.237 55.584a6.453 6.453 0 0 0 -9.037 1.274l-20.922 27.792 10.311 7.762 20.922-27.791a6.454 6.454 0 0 0 -1.274-9.037z" fill="#fccf00"/><path d="m69.049 98.34 2.229-13.69 10.311 7.762z" fill="#fabb8d"/><circle cx="39.837" cy="43.125" fill="#ff4155" r="4.125"/><path d="m76.337 44.875h-25a1.75 1.75 0 0 1 0-3.5h25a1.75 1.75 0 0 1 0 3.5z" fill="#b7e8f9"/><circle cx="39.837" cy="59.875" fill="#fccf00" r="4.125"/><path d="m76.337 61.625h-25a1.75 1.75 0 0 1 0-3.5h25a1.75 1.75 0 0 1 0 3.5z" fill="#b7e8f9"/><circle cx="39.837" cy="76.625" fill="#00acf3" r="4.125"/><path d="m67.377 78.375h-16.04a1.75 1.75 0 0 1 0-3.5h16.04a1.75 1.75 0 1 1 0 3.5z" fill="#b7e8f9"/><circle cx="39.837" cy="93.375" fill="#42e893" r="4.125"/><path d="m61.377 95.125h-10.04a1.75 1.75 0 1 1 0-3.5h10.04a1.75 1.75 0 1 1 0 3.5z" fill="#b7e8f9"/></g><g fill="#5b2300"><path d="m42.25 22.625h.75a1.75 1.75 0 0 0 0-3.5h-.75a1.75 1.75 0 0 0 0 3.5z"/><path d="m87.858 93.75a1.75 1.75 0 0 0 -1.75 1.75v9.875h-60.167v-82.75h9.771a1.75 1.75 0 0 0 0-3.5h-11.521a1.75 1.75 0 0 0 -1.75 1.75v86.25a1.75 1.75 0 0 0 1.75 1.75h63.667a1.75 1.75 0 0 0 1.75-1.75v-11.625a1.75 1.75 0 0 0 -1.75-1.75z"/><path d="m105.478 59.594a8.2 8.2 0 0 0 -14.678-3.788l-1.194 1.585v-25.849a1.75 1.75 0 0 0 -.513-1.237l-10.665-10.667a1.75 1.75 0 0 0 -1.237-.513h-27.691a1.75 1.75 0 0 0 0 3.5h25.941v8.917a1.75 1.75 0 0 0 1.75 1.75h4.309a1.75 1.75 0 0 0 0-3.5h-2.559v-4.692l7.167 7.167v29.774l-16.228 21.559a1.726 1.726 0 0 0 -.319.753c0 .008-.009.01-.01.018l-2.229 13.688a1.75 1.75 0 0 0 2.478 1.863l12.54-5.928c.008 0 .007-.012.014-.016a1.739 1.739 0 0 0 .636-.513l8.776-11.665a1.75 1.75 0 1 0 -2.8-2.106l-7.723 10.268-7.514-5.662 19.871-26.389a4.7 4.7 0 1 1 7.514 5.656l-3.594 4.776a1.75 1.75 0 1 0 2.8 2.1l3.594-4.775a8.147 8.147 0 0 0 1.564-6.074zm-32.939 28.196 5.683 4.278-6.911 3.267z"/><path d="m96.02 73.243a1.75 1.75 0 0 0 -2.451.346l-.592.786a1.75 1.75 0 1 0 2.8 2.105l.592-.786a1.751 1.751 0 0 0 -.349-2.451z"/><path d="m33.962 43.125a5.875 5.875 0 1 0 5.875-5.875 5.882 5.882 0 0 0 -5.875 5.875zm5.875-2.375a2.375 2.375 0 1 1 -2.375 2.375 2.378 2.378 0 0 1 2.375-2.375z"/><path d="m51.337 44.875h25a1.75 1.75 0 0 0 0-3.5h-25a1.75 1.75 0 0 0 0 3.5z"/><path d="m39.837 54a5.875 5.875 0 1 0 5.875 5.875 5.882 5.882 0 0 0 -5.875-5.875zm0 8.25a2.375 2.375 0 1 1 2.375-2.375 2.377 2.377 0 0 1 -2.375 2.375z"/><path d="m51.337 61.625h25a1.75 1.75 0 0 0 0-3.5h-25a1.75 1.75 0 0 0 0 3.5z"/><path d="m39.837 70.75a5.875 5.875 0 1 0 5.875 5.875 5.882 5.882 0 0 0 -5.875-5.875zm0 8.25a2.375 2.375 0 1 1 2.375-2.375 2.377 2.377 0 0 1 -2.375 2.375z"/><path d="m51.337 78.375h16.04a1.75 1.75 0 1 0 0-3.5h-16.04a1.75 1.75 0 0 0 0 3.5z"/><path d="m39.837 87.5a5.875 5.875 0 1 0 5.875 5.875 5.882 5.882 0 0 0 -5.875-5.875zm0 8.25a2.375 2.375 0 1 1 2.375-2.375 2.377 2.377 0 0 1 -2.375 2.375z"/><path d="m51.337 95.125h10.04a1.75 1.75 0 1 0 0-3.5h-10.04a1.75 1.75 0 1 0 0 3.5z"/></g></g></svg>