<svg id="Capa_1" enable-background="new 0 0 512 512" height="512" viewBox="0 0 512 512" width="512" xmlns="http://www.w3.org/2000/svg"><g><path d="m493.431 50.675h-351.183c-4.312 0-8.231-2.504-10.044-6.417l-14.055-30.342c-1.812-3.913-5.732-6.416-10.044-6.416h-89.536c-6.113 0-11.069 4.956-11.069 11.069v474.862c0 6.113 4.956 11.069 11.069 11.069h29.16l456.771-415.178v-27.578c0-6.114-4.955-11.069-11.069-11.069z" fill="#df73c1"/><path d="m90.649 13.916 14.055 30.342c1.812 3.913 5.732 6.417 10.044 6.417h27.5c-4.312 0-8.231-2.504-10.044-6.417l-14.055-30.342c-1.812-3.913-5.732-6.416-10.044-6.416h-27.5c4.312 0 8.232 2.504 10.044 6.416z" fill="#dd4fb1"/><path d="m493.431 50.675h-27.5c6.113 0 11.069 4.956 11.069 11.069v49.097l27.5-21.519v-27.578c0-6.114-4.955-11.069-11.069-11.069z" fill="#dd4fb1"/><path d="m493.431 504.5h-445.702v-399.44c0-8.692 7.046-15.738 15.738-15.738h441.033v404.109c0 6.113-4.955 11.069-11.069 11.069z" fill="#f9f6f9"/><path d="m477 89.322v404.109c0 6.113-4.956 11.069-11.069 11.069h27.5c6.113 0 11.069-4.956 11.069-11.069v-404.109z" fill="#dddaec"/><g><g><circle cx="124.385" cy="160.484" fill="#365e7d" r="32.334"/><path d="m124.385 128.15c-3.419 0-6.712.535-9.805 1.518 13.063 4.153 22.529 16.377 22.529 30.816 0 14.438-9.466 26.663-22.529 30.815 3.093.983 6.386 1.518 9.805 1.518 17.857 0 32.334-14.477 32.334-32.333 0-17.857-14.476-32.334-32.334-32.334z" fill="#2b4d66"/></g></g><path d="m426.059 456.51h-289.625c-6.654 0-12.049-5.394-12.049-12.049v-196.558c0-6.654 5.394-12.049 12.049-12.049h289.625c6.654 0 12.049 5.394 12.049 12.049v196.558c0 6.654-5.395 12.049-12.049 12.049z" fill="#dddaec"/><path d="m426.059 235.854h-25.246c6.654 0 12.049 5.394 12.049 12.049v196.558c0 6.654-5.394 12.049-12.049 12.049h25.246c6.655 0 12.049-5.395 12.049-12.049v-196.558c0-6.654-5.395-12.049-12.049-12.049z" fill="#d0cee7"/><g><path d="m43.361 38.474c-4.143 0-7.5 3.357-7.5 7.5s3.357 7.5 7.5 7.5h42.597c4.143 0 7.5-3.357 7.5-7.5s-3.357-7.5-7.5-7.5z"/><path d="m493.432 43.175h-93.719c-4.143 0-7.5 3.357-7.5 7.5s3.357 7.5 7.5 7.5h93.719c1.968 0 3.568 1.601 3.568 3.568v20.078h-433.533c-12.813 0-23.237 10.425-23.237 23.238v316.107c0 4.143 3.357 7.5 7.5 7.5s7.5-3.357 7.5-7.5v-316.106c0-4.543 3.695-8.238 8.237-8.238h433.533v396.609c0 1.968-1.601 3.569-3.568 3.569h-438.203v-45.846c0-4.143-3.357-7.5-7.5-7.5s-7.5 3.357-7.5 7.5v45.846h-21.66c-1.968 0-3.569-1.602-3.569-3.569v-474.863c0-1.967 1.602-3.568 3.569-3.568h89.536c1.386 0 2.656.812 3.238 2.068l14.055 30.342c3.029 6.539 9.643 10.765 16.85 10.765h227.478c4.143 0 7.5-3.357 7.5-7.5s-3.357-7.5-7.5-7.5h-227.478c-1.385 0-2.656-.812-3.238-2.069l-14.056-30.343c-3.029-6.538-9.642-10.763-16.849-10.763h-89.536c-10.239 0-18.569 8.33-18.569 18.568v474.862c0 10.24 8.33 18.57 18.569 18.57h474.862c10.239 0 18.569-8.33 18.569-18.569v-431.688c0-10.238-8.33-18.568-18.568-18.568z"/><path d="m124.386 120.65c-21.965 0-39.834 17.869-39.834 39.834 0 21.964 17.869 39.833 39.834 39.833 21.964 0 39.833-17.869 39.833-39.833s-17.869-39.834-39.833-39.834zm0 64.667c-13.693 0-24.834-11.14-24.834-24.833s11.141-24.834 24.834-24.834 24.833 11.141 24.833 24.834-11.14 24.833-24.833 24.833z"/><path d="m208.255 150.015h105.738c4.143 0 7.5-3.357 7.5-7.5s-3.357-7.5-7.5-7.5h-105.738c-4.143 0-7.5 3.357-7.5 7.5s3.357 7.5 7.5 7.5z"/><path d="m208.255 185.953h165.738c4.143 0 7.5-3.357 7.5-7.5s-3.357-7.5-7.5-7.5h-165.738c-4.143 0-7.5 3.357-7.5 7.5s3.357 7.5 7.5 7.5z"/><path d="m445.607 167.16c5.276-1.392 10.139-4.23 13.943-8.237 5.64-5.94 8.512-13.725 8.087-21.919-.809-15.594-13.836-28.008-29.527-28.008-14.714 0-27.249 10.846-29.289 25.461-.188 1.358-.284 2.74-.284 4.109 0 4.143 3.357 7.5 7.5 7.5s7.5-3.357 7.5-7.5c0-.682.048-1.37.141-2.041 1.004-7.191 7.183-12.529 14.437-12.529 7.738 0 14.146 6.119 14.543 13.785.21 4.046-1.205 7.886-3.984 10.812-2.781 2.93-6.533 4.543-10.565 4.543-4.143 0-7.5 3.357-7.5 7.5v18.079c0 4.143 3.357 7.5 7.5 7.5s7.5-3.357 7.5-7.5v-11.555z"/><path d="m438.107 193.015c-4.143 0-7.5 3.357-7.5 7.5v3.957c0 4.143 3.357 7.5 7.5 7.5s7.5-3.357 7.5-7.5v-3.957c0-4.143-3.357-7.5-7.5-7.5z"/><path d="m169.821 284.758h122.851c4.143 0 7.5-3.357 7.5-7.5s-3.357-7.5-7.5-7.5h-122.851c-4.143 0-7.5 3.357-7.5 7.5s3.358 7.5 7.5 7.5z"/><path d="m392.672 304.22h-222.851c-4.143 0-7.5 3.357-7.5 7.5s3.357 7.5 7.5 7.5h222.851c4.143 0 7.5-3.357 7.5-7.5s-3.358-7.5-7.5-7.5z"/><path d="m392.672 338.682h-222.851c-4.143 0-7.5 3.357-7.5 7.5s3.357 7.5 7.5 7.5h222.851c4.143 0 7.5-3.357 7.5-7.5s-3.358-7.5-7.5-7.5z"/><path d="m400.172 380.645c0-4.143-3.357-7.5-7.5-7.5h-222.851c-4.143 0-7.5 3.357-7.5 7.5s3.357 7.5 7.5 7.5h222.851c4.142 0 7.5-3.358 7.5-7.5z"/><path d="m169.821 407.606c-4.143 0-7.5 3.357-7.5 7.5s3.357 7.5 7.5 7.5h182.851c4.143 0 7.5-3.357 7.5-7.5s-3.357-7.5-7.5-7.5z"/><path d="m116.886 247.903v196.558c0 10.779 8.77 19.549 19.549 19.549h289.624c10.779 0 19.549-8.77 19.549-19.549v-117.748c0-4.143-3.357-7.5-7.5-7.5s-7.5 3.357-7.5 7.5v117.748c0 2.508-2.041 4.549-4.549 4.549h-289.624c-2.508 0-4.549-2.041-4.549-4.549v-196.558c0-2.508 2.041-4.549 4.549-4.549h289.624c2.508 0 4.549 2.041 4.549 4.549v48.823c0 4.143 3.357 7.5 7.5 7.5s7.5-3.357 7.5-7.5v-48.823c0-10.779-8.77-19.549-19.549-19.549h-289.624c-10.78 0-19.549 8.77-19.549 19.549z"/></g></g></svg>