<svg id="_x35_0" enable-background="new 0 0 512 512" height="512" viewBox="0 0 512 512" width="512" xmlns="http://www.w3.org/2000/svg"><g><g><circle cx="256" cy="256" fill="#14a36d" r="256"/><circle cx="256" cy="256" fill="#15be79" r="209.49"/></g><g><g><path d="m165.288 409.72c0-21.327-17.278-38.623-38.614-38.623h-26.543c-21.336 0-38.614 17.295-38.614 38.623z" fill="#5368b7"/><path d="m165.288 409.72c0-21.327-17.278-38.623-38.614-38.623h-1.827c-21.336 0-38.623 17.295-38.623 38.623z" fill="#6c7ed5"/></g><g><path d="m130.547 354.882v18.622c0 9.471-7.681 17.141-17.153 17.141-3.177 0-6.152-.865-8.7-2.371-5.05-2.975-8.44-8.475-8.44-14.77v-18.622z" fill="#f5b890"/><path d="m96.254 354.882v18.622c0 6.294 3.39 11.794 8.44 14.77v-19.902c5.962 2.489 12.518 3.864 19.393 3.864 2.193 0 4.351-.142 6.461-.403v-16.951z" fill="#d48d77"/></g><g><g><g><path d="m65.14 298.953h8.503v-26.608h-8.503c-7.347 0-13.304 5.956-13.304 13.304 0 7.348 5.956 13.304 13.304 13.304z" fill="#d48d77"/><path d="m64.711 291.358h8.932v-11.418h-8.932c-3.153 0-5.709 2.556-5.709 5.709 0 3.153 2.556 5.709 5.709 5.709z" fill="#c17e62"/></g><g><path d="m178.259 272.345h-3.724v26.608h3.724c7.347 0 13.304-5.956 13.304-13.304 0-7.347-5.957-13.304-13.304-13.304z" fill="#d48d77"/><path d="m178.688 279.94h-4.153v11.418h4.153c3.153 0 5.709-2.556 5.709-5.709 0-3.153-2.556-5.709-5.709-5.709z" fill="#c17e62"/></g></g><g><path d="m174.536 242.734v70.079c0 13.928-5.642 26.54-14.77 35.668-6.591 6.579-14.983 11.344-24.371 13.501-3.639.83-7.42 1.268-11.309 1.268-27.856 0-50.449-22.581-50.449-50.438v-70.079c0-15.268 12.387-27.643 27.655-27.643h45.602c2.679 0 5.263.379 7.717 1.102 11.509 3.332 19.925 13.953 19.925 26.542z" fill="#d48d77"/><path d="m174.536 242.734v70.079c0 13.928-5.642 26.54-14.77 35.668-6.591 6.579-14.983 11.344-24.371 13.501-22.427-5.133-39.141-25.201-39.141-49.169v-26.813c0-34.885 25.178-63.88 58.356-69.807 11.51 3.331 19.926 13.952 19.926 26.541z" fill="#f5b890"/><g fill="#eea47d"><path d="m138.353 289.173h-10.284c-4.224 0-7.648 3.424-7.648 7.648 0 4.224 3.424 7.648 7.648 7.648h10.284c4.224 0 7.648-3.424 7.648-7.648 0-4.224-3.424-7.648-7.648-7.648z"/><path d="m130.54 242.53c-3.563 0-6.451 2.888-6.451 6.451v45.383h12.902v-45.383c0-3.562-2.888-6.451-6.451-6.451z"/></g><g fill="#334353"><path d="m110.398 259.256c-3.86 0-6.989 3.129-6.989 6.989v12.2c0 3.86 3.129 6.989 6.989 6.989 3.86 0 6.989-3.129 6.989-6.989v-12.2c0-3.859-3.129-6.989-6.989-6.989z"/><path d="m150.682 259.256c-3.86 0-6.989 3.129-6.989 6.989v12.2c0 3.86 3.129 6.989 6.989 6.989 3.86 0 6.989-3.129 6.989-6.989v-12.2c0-3.859-3.129-6.989-6.989-6.989z"/></g><g><path d="m125.915 332.657c-12.108 0-21.959-9.851-21.959-21.958 0-2.291 1.857-4.149 4.149-4.149s4.149 1.857 4.149 4.149c0 7.532 6.128 13.661 13.661 13.661 2.291 0 4.149 1.857 4.149 4.149 0 2.29-1.857 4.148-4.149 4.148z" fill="#c17e62"/></g></g></g></g><g><g><path d="m49.07 406.75c46.56 63.8 121.91 105.25 206.93 105.25s160.37-41.45 206.93-105.25z" fill="#c17e62"/><g fill="#d48d77"><path d="m131.42 406.75v72.95c6.668 3.708 13.507 7.145 20.48 10.25v-83.2z"/><path d="m49.08 406.75c4.978 6.838 10.303 13.422 15.94 19.73v-19.73z"/><path d="m311.468 406.75v42.24c0 5.66 4.59 10.25 10.25 10.25 5.65 0 10.24-4.59 10.24-10.25v-42.24z"/><path d="m206.29 437.94v69.23c6.74 1.33 13.57 2.39 20.49 3.17v-72.4c0-5.65-4.59-10.24-10.24-10.24-5.656.004-10.249 4.576-10.25 10.24z"/><path d="m84.79 434.63v11.68c6.53 5.9 13.37 11.45 20.49 16.63v-28.31c-.528-13.576-19.964-13.571-20.49 0z"/><path d="m263.37 406.75v105.14c6.849-.186 13.674-.653 20.48-1.39v-103.75z"/><path d="m348.32 460.62v34.23c6.98-2.7 13.81-5.7 20.48-8.98v-25.25c-.518-13.58-19.966-13.573-20.48 0z"/><path d="m416.17 407.27v48.44c7.145-5.736 13.984-11.856 20.48-18.32v-30.12c0-.17 0-.35-.01-.52h-20.46c-.01.18-.01.35-.01.52z"/></g></g></g><g><g><path d="m231.188 246.94v108.226c0 2.95.877 5.708 2.395 8.018 1.903 2.951 4.832 5.153 8.296 6.115 1.261.364 2.608.556 3.977.556h165.889c1.39 0 2.715-.192 3.977-.556 3.464-.962 6.393-3.164 8.296-6.115 1.518-2.309 2.395-5.067 2.395-8.018v-108.226c0-1.368-.192-2.715-.556-3.977-1.368-4.896-5.217-8.766-10.134-10.134-1.261-.364-2.608-.556-3.977-.556h-165.892c-1.39 0-2.715.192-3.977.556-4.896 1.368-8.766 5.217-10.134 10.134-.363 1.262-.555 2.609-.555 3.977z" fill="#3f5d77"/><path d="m233.582 363.184c2.608 4.02 7.12 6.671 12.272 6.671h165.889c5.153 0 9.664-2.651 12.272-6.671-5.794-16.548-21.551-28.393-40.045-28.393h-110.321c-18.516 0-34.273 11.845-40.067 28.393z" fill="#334353"/><path d="m405.03 246.94v108.226c0 2.95.877 5.708 2.395 8.018 1.903 2.951 4.832 5.153 8.296 6.115 3.464-.962 6.393-3.164 8.296-6.115 1.518-2.309 2.395-5.067 2.395-8.018v-108.226c0-6.713-4.511-12.379-10.69-14.111-6.181 1.732-10.692 7.398-10.692 14.111z" fill="#3e4e60"/><g fill="#3f6c8e"><path d="m231.188 246.94v108.226c0 2.95.877 5.708 2.395 8.018 1.903 2.951 4.832 5.153 8.296 6.115 3.464-.962 6.393-3.164 8.296-6.115 1.518-2.309 2.395-5.067 2.395-8.018v-108.226c0-6.735-4.533-12.4-10.69-14.111-6.16 1.711-10.692 7.376-10.692 14.111z"/><path d="m370.448 252.232h-83.298c-5.358 0-9.701-4.343-9.701-9.701 0-5.358 4.343-9.701 9.701-9.701h83.297c5.358 0 9.701 4.343 9.701 9.701.001 5.357-4.343 9.701-9.7 9.701z"/></g></g><path d="m315.005 351.302h27.588c4.885 0 8.844 3.96 8.844 8.844v36.432h-45.277v-36.432c.001-4.884 3.96-8.844 8.845-8.844z" fill="#3e4e60"/><g><path d="m276.928 396.579h103.742c5.297 0 9.592 4.294 9.592 9.592 0 5.297-4.294 9.592-9.592 9.592h-103.742c-5.297 0-9.592-4.294-9.592-9.592 0-5.298 4.294-9.592 9.592-9.592z" fill="#3f5d77"/><path d="m296.816 396.579h63.966c3.266 0 5.914 2.648 5.914 5.914 0 3.266-2.648 5.914-5.914 5.914h-63.966c-3.266 0-5.914-2.648-5.914-5.914 0-3.266 2.648-5.914 5.914-5.914z" fill="#3f6c8e"/></g></g><g><g id="Speech-bubble_7_"><path d="m212.83 235.423c3.671 0 7.269-1.793 9.429-5.094l36.304-55.483c3.404-5.202 1.946-12.178-3.256-15.582-5.201-3.404-12.176-1.946-15.581 3.256l-36.304 55.483c-3.403 5.202-1.946 12.178 3.256 15.582 1.9 1.243 4.039 1.838 6.152 1.838z" fill="#ebd9ea"/><path d="m179.466 97.217v45.067c0 11.718 3.969 22.495 10.635 31.089 9.277 11.945 23.777 19.627 40.071 19.627h128.466c16.294 0 30.794-7.682 40.062-19.627 6.675-8.594 10.645-19.371 10.645-31.089v-45.067c0-11.718-3.969-22.495-10.645-31.079-9.268-11.945-23.768-19.627-40.062-19.627h-128.466c-16.294 0-30.794 7.682-40.071 19.627-6.666 8.583-10.635 19.361-10.635 31.079z" fill="#ebd9ea"/><path d="m179.466 97.217v45.067c0 11.718 3.969 22.495 10.635 31.089 6.675-8.594 10.645-19.371 10.645-31.089v-45.067c0-11.718-3.969-22.495-10.645-31.079-6.666 8.583-10.635 19.361-10.635 31.079z" fill="#fff"/><path d="m388.065 97.217v45.067c0 11.718 3.969 22.495 10.635 31.089 6.675-8.594 10.645-19.371 10.645-31.089v-45.067c0-11.718-3.969-22.495-10.645-31.079-6.666 8.583-10.635 19.361-10.635 31.079z" fill="#c1b7d3"/></g><g><path d="m316.791 116.977-.33-2.64c-.411-3.312-3.272-6.114-6.741-6.251l-9.092-.353-4.311-.157c-.764-1.646-1.665-3.213-2.665-4.703l.744-1.372 3.37-6.153 2.313-4.233c.333-.608.568-1.254.686-1.92.549-2.626-.47-5.428-2.586-7.074l-4.135-3.253c-2.646-2.038-6.643-1.999-9.19.372l-6.604 6.114-3.233 2.979c-1.705-.607-3.449-1.078-5.212-1.43l-3.782-12.874c-.176-.568-.411-1.097-.705-1.587v-.02c-.608-.98-1.43-1.803-2.391-2.391 0 0-.019 0-.019-.02h-.02c-1.352-.803-2.958-1.196-4.565-.999l-5.212.647c-.453.053-.896.158-1.328.301l-.233-4.285-3.917 7.821.015-.008c-.462.884-.75 1.868-.789 2.912l-.294 7.584-.137 3.292-.098 2.528c-1.626.764-3.194 1.666-4.703 2.665l-11.757-6.427c-1.529-.842-3.292-1.019-4.919-.666-1.536.36-2.952 1.206-3.966 2.449l-.19-2.329-3.703 7.457c-.097.172-.18.347-.261.526l-.163.328.03-.007c-.976 2.454-.591 5.424 1.297 7.469l7.721 8.348 1.391 1.509c-.608 1.685-1.097 3.429-1.451 5.193l-12.661 3.725-.531-4.205-4.027 8.044.027-.016c-.584 1.214-.851 2.577-.68 3.935l.647 5.212c.137 1.196.607 2.332 1.313 3.292.431.588.941 1.117 1.548 1.548 1.097.823 2.449 1.352 3.88 1.411l13.384.529c.725 1.528 1.548 2.998 2.469 4.409.058.098.137.196.196.294l-3.155 5.8-1.529 2.802-1.725 3.155c-1.665 3.057-.744 6.937 1.901 8.994l4.135 3.233c2.645 2.058 6.643 1.999 9.19-.353l.784-.745 9.033-8.348c1.705.627 3.449 1.078 5.232 1.43l3.782 12.855c.98 3.331 4.37 5.428 7.701 5.017l5.212-.647c2.373-.295 4.466-1.858 5.523-3.991l.001.04 3.829-7.656-2.959 1.282.367-9.799c1.293-.607 2.528-1.274 3.703-2.018.333-.215.666-.431.999-.647l11.777 6.427c1.92 1.039 4.193 1.058 6.114.255h.02c1.117-.47 2.116-1.195 2.861-2.155l3.233-4.154c.3-.385.543-.805.753-1.24l.002.025 4.101-8.248-3.953 2.249c-.301-.71-.71-1.383-1.255-1.977l-9.112-9.837c.608-1.705 1.097-3.429 1.45-5.213l3.86-1.136 8.995-2.626c1.96-.588 3.488-1.999 4.331-3.743l3.767-7.518zm-32.644 8v.02c-.059 1.45-.294 2.881-.666 4.272-.745 2.802-2.058 5.448-3.88 7.779-.432.568-.902 1.097-1.372 1.607-3.468 3.664-8.054 5.996-13.109 6.623-5.761.706-11.464-.862-16.049-4.448-4.586-3.566-7.505-8.7-8.211-14.481-.725-5.761.862-11.464 4.428-16.049.02-.02.039-.039.059-.059.647-.843 1.352-1.627 2.097-2.352 3.37-3.194 7.642-5.232 12.326-5.8.451-.059.901-.098 1.352-.137.451-.02.921-.039 1.372-.039 4.801 0 9.465 1.607 13.325 4.605 2.293 1.783 4.174 3.978 5.565 6.427s2.293 5.174 2.645 8.054c.177 1.333.216 2.665.118 3.978z" fill="#2e3140"/><path d="m321.026 111.731-.647-5.232c-.411-3.312-3.272-6.114-6.741-6.251l-13.404-.51c-.705-1.529-1.548-2.998-2.469-4.389-.059-.098-.117-.216-.196-.313l3.194-5.84 3.234-5.918c1.665-3.057.744-6.937-1.901-8.995l-4.135-3.253c-2.646-2.038-6.643-1.999-9.19.372l-9.837 9.092c-1.705-.607-3.449-1.078-5.212-1.43l-3.782-12.874c-.98-3.331-4.37-5.428-7.701-5.017l-5.212.647c-.647.078-1.254.235-1.842.49-2.469 1.039-4.291 3.449-4.409 6.251l-.078 1.862-.451 11.542c-1.254.588-2.488 1.274-3.684 2.018-.333.196-.686.431-1.019.647l-3.86-2.116-.118-.118-7.779-4.194c-3.037-1.666-6.937-.744-8.995 1.901l-2.234 2.881-.999 1.274c-1.039 1.332-1.548 3.018-1.489 4.703.078 1.627.686 3.214 1.842 4.468l9.112 9.857c-.608 1.685-1.097 3.429-1.451 5.193l-3.86 1.136-8.995 2.646c-3.331.98-5.428 4.389-5.017 7.701l.059.529.588 4.683c.411 3.331 3.272 6.114 6.741 6.251l13.384.529c.784 1.626 1.665 3.194 2.665 4.703l-4.115 7.544-2.293 4.213c-.333.607-.549 1.234-.666 1.881-.392 1.803-.039 3.704.921 5.252l.02.039c.431.686.98 1.313 1.626 1.823l.98.764 3.155 2.469c2.645 2.058 6.643 1.999 9.19-.353l9.817-9.092c1.705.627 3.449 1.078 5.232 1.43l3.782 12.855c.98 3.331 4.37 5.428 7.701 5.017l5.212-.647c.843-.118 1.666-.372 2.41-.764 2.156-1.137 3.743-3.39 3.841-5.977l.294-7.564.216-5.82c1.528-.725 2.979-1.529 4.37-2.449.118-.078.215-.137.333-.216l11.777 6.427c3.037 1.646 6.937.725 8.995-1.901l.803-1.019.431-.568 1.999-2.567c2.058-2.646 1.999-6.643-.353-9.191l-7.721-8.348-1.391-1.489c.608-1.705 1.097-3.429 1.45-5.213l9.994-2.92h.02l2.841-.842c.353-.098.706-.235 1.039-.392 2.724-1.332 4.351-4.349 3.978-7.308zm-51.987 25.709c-5.761.706-11.464-.862-16.049-4.448-4.586-3.566-7.505-8.7-8.211-14.481-.353-2.822-.157-5.624.568-8.269.294-1.137.686-2.234 1.156-3.292.705-1.587 1.607-3.096 2.704-4.487 1.862-2.391 4.135-4.311 6.702-5.722 2.391-1.313 5.016-2.155 7.779-2.488.901-.117 1.822-.176 2.724-.176 4.801 0 9.465 1.607 13.325 4.605 2.293 1.783 4.174 3.978 5.565 6.427s2.293 5.174 2.645 8.054c.568 4.605-.313 9.151-2.508 13.129-.549 1.019-1.196 1.999-1.92 2.92-.02.02-.039.039-.039.059-2.215 2.822-5.017 4.997-8.211 6.427-1.958.88-4.055 1.468-6.23 1.742z" fill="#3e4e60"/><g fill="#3f6c8e"><path d="m255.91 96.74c-2.567 1.411-4.84 3.331-6.702 5.722-1.097 1.391-1.999 2.9-2.704 4.487l-21.555-21.575-2.391-2.391 2.234-2.881c2.058-2.645 5.957-3.566 8.995-1.901l7.779 4.194.118.118 4.742 4.762z"/><path d="m309.171 150.001-.431.568-.803 1.019c-2.058 2.626-5.957 3.547-8.995 1.901l-11.777-6.427c-.118.078-.215.137-.333.216l-8.603-8.622-2.959-2.959c3.194-1.43 5.996-3.606 8.211-6.427 0-.02.019-.039.039-.059.725-.921 1.372-1.901 1.92-2.92l23.142 23.123z"/><path d="m317.048 119.04c-.333.157-.686.294-1.039.392l-2.841.842h-.02l-12.521-12.541-6.232-6.232-16.147-16.147-12.933-12.914v-.02l-2.391-2.391s-.019 0-.019-.02h-.02l-7.701-7.701c.588-.255 1.196-.411 1.842-.49l5.212-.647c3.331-.411 6.721 1.685 7.701 5.017l3.782 12.874c1.763.353 3.507.823 5.212 1.43l9.837-9.092c2.548-2.371 6.545-2.41 9.19-.372l4.135 3.253c2.645 2.058 3.566 5.938 1.901 8.995l-3.234 5.918c-.118.666-.353 1.313-.686 1.92l-2.313 4.233c.921 1.391 1.764 2.861 2.469 4.389l13.404.51c3.468.137 6.329 2.939 6.741 6.251l.647 5.232c.375 2.961-1.252 5.978-3.976 7.311z"/></g></g><g><path d="m344.727 135.37c-.918-1.05-1.377-2.492-1.377-4.329 0-4.806.873-8.873 2.623-12.197 1.748-3.321 4.283-6.95 7.606-10.885 2.623-3.147 4.545-5.77 5.77-7.868 1.223-2.098 1.836-4.459 1.836-7.082 0-2.885-1.072-5.18-3.213-6.885-2.143-1.706-5.049-2.557-8.721-2.557-3.148 0-6.164.678-9.049 2.033-2.885 1.356-6.252 3.3-10.098 5.836-2.187 1.225-3.98 1.836-5.377 1.836-1.488 0-2.777-.676-3.869-2.032-1.094-1.354-1.639-2.95-1.639-4.787 0-2.535 1.049-4.59 3.148-6.163 3.672-3.148 8-5.617 12.983-7.41 4.984-1.791 10.011-2.689 15.082-2.689 5.332 0 10.076.919 14.229 2.755 4.152 1.836 7.387 4.372 9.705 7.606 2.315 3.235 3.476 6.95 3.476 11.147 0 4.547-1.094 8.504-3.279 11.869-2.187 3.367-5.377 7.148-9.574 11.344-3.586 3.672-6.274 6.754-8.065 9.246-1.793 2.492-2.908 5.312-3.344 8.459-.262 1.401-.853 2.472-1.771 3.214-.918.743-2.078 1.115-3.476 1.115-1.487-.002-2.688-.527-3.606-1.576zm-3.082 26.294c-1.836-1.878-2.754-4.217-2.754-7.016 0-2.797.918-5.135 2.754-7.016 1.836-1.879 4.151-2.82 6.951-2.82 2.797 0 5.115.941 6.951 2.82 1.836 1.881 2.754 4.219 2.754 7.016 0 2.799-.941 5.138-2.82 7.016-1.881 1.882-4.176 2.82-6.885 2.82-2.8.001-5.115-.938-6.951-2.82z" fill="#14a36d"/></g></g></g></svg>